<svg xmlns="http://www.w3.org/2000/svg" xmlns:xlink="http://www.w3.org/1999/xlink" width="145.697" height="26.005" viewBox="0 0 145.697 26.005"><defs><clipPath id="a"><rect width="145.697" height="26.005" fill="#fff"/></clipPath></defs><path d="M6.717,7.226l4.886-3,5.14,3L11.73,10.636ZM11.6,0,0,7.125v11.6L11.73,26l11.73-7.481V11.145l-3.867,2.6v2.748L11.73,21.425,3.613,16.437V9.567l8.117,5.14L23.46,7.125Z" fill="#b19326"/><g clip-path="url(#a)"><path d="M135.219,14.909l-.814,2.036H115.745a3.47,3.47,0,0,0-3.053,2.205l-1.018,3.121h15.4l-1.188,2.273h-15l-1.56,4.071s-.611,1.663,1.289,1.663h19.847l-1.018,2.239H109.24c-3.74,0-6.488-1.425-5.233-4.716l3.223-8.38c.984-2.511,3.257-4.512,9.16-4.512Z" transform="translate(-76.798 -11.041)" fill="#12110f"/><path d="M217.738,16.363s1.069-1.883,6.26-2.036,20.966-.2,20.966-.2l-2.6,7.481S241.656,24,237.891,24H219.875l-3,7.939h-5.6l4.071-10.483h18.677s2.442.2,2.849-1.018,1.17-4.02,1.17-4.02Z" transform="translate(-156.467 -10.46)" fill="#12110f"/><path d="M340.288,14.124c-7.735,0-9.109,4.275-9.109,4.275l-3.511,8.957c-1.12,2.85,1.577,4.58,6.056,4.58h14.1c5.6,0,6.667-3.409,6.667-3.409l5.292-14.4Zm8.346,14.4s-.153,1.12-2.493,1.12H334.385s-1.934,0-1.221-1.73,3.817-9.975,3.817-9.975a2.9,2.9,0,0,1,2.85-1.476H353.01Z" transform="translate(-242.478 -10.46)" fill="#12110f"/><path d="M433.341,31.935l4.885-13.384s.763-4.427,8.8-4.427l9.16,12.926,4.835-12.926h5.6l-6.514,17.811h-5.6L445.249,18.45s-.611-.763-1.018,0l-4.987,13.486Z" transform="translate(-320.926 -10.46)" fill="#12110f"/></g></svg>
